<svg clip-rule="evenodd" fill-rule="evenodd" stroke-linejoin="round" stroke-miterlimit="2" viewBox="0 0 560 400" xmlns="http://www.w3.org/2000/svg"><g transform="matrix(2.25 0 0 2.25 67.375 155)"><path d="m180.614 34c-.452 0-.703-.28-.703-.662s.251-.662.703-.662c1.13 0 1.632-.357 2.36-2.292l.477-1.222-4.243-11.026c-.025-.076-.05-.203-.05-.331 0-.331.275-.636.678-.636.301 0 .527.152.653.509l3.64 9.6h.025l3.541-9.6c.125-.357.351-.509.653-.509.4 0 .652.305.652.636 0 .128-.025.255-.05.331l-4.72 12.452c-1.055 2.826-1.909 3.412-3.415 3.412zm-7.777-5.22v-12.961c0-2.903.929-3.718 3.34-3.718h.352c.451 0 .703.28.703.663 0 .382-.252.662-.703.662-1.984 0-2.336.305-2.336 2.215v1.477c0 .102.05.152.151.152h2.26c.426 0 .628.255.628.612 0 .356-.202.611-.628.611h-2.26c-.101 0-.151.051-.151.152v10.135c0 .484-.276.739-.677.739-.403 0-.679-.255-.679-.739zm-4.132 0v-10.873c0-.484.276-.738.678-.738s.677.254.677.738v10.873c0 .484-.275.739-.677.739s-.678-.255-.678-.739zm-.376-15.71c0-.587.476-1.07 1.054-1.07s1.054.483 1.054 1.07c0 .585-.476 1.069-1.054 1.069s-1.054-.484-1.054-1.069zm-8.53 15.71v-10.873c0-.484.276-.738.677-.738.403 0 .679.254.679.738v1.172h.025c.451-1.223 1.582-2.063 3.139-2.063.954 0 1.582.254 2.058.535.302.178.401.382.401.611 0 .382-.275.687-.677.687-.1 0-.226-.025-.351-.076-.553-.255-1.081-.433-1.683-.433-2.109 0-2.912 1.833-2.912 4.1v6.34c0 .484-.276.739-.679.739-.401 0-.677-.255-.677-.739zm-3.848-6.315c.101 0 .15-.051.15-.153 0-.713-.075-1.248-.225-1.731-.477-1.502-1.657-2.292-3.214-2.292s-2.711.79-3.189 2.292c-.15.483-.226 1.018-.226 1.731 0 .102.05.153.151.153zm-7.708 4.024c-.251-.765-.377-1.605-.377-3.158 0-1.528.126-2.368.377-3.158.652-2.037 2.284-3.157 4.419-3.157 2.158 0 3.791 1.12 4.444 3.157.251.764.377 1.681.377 2.903 0 .382-.252.637-.628.637h-7.457c-.101 0-.151.05-.151.153 0 .993.05 1.502.251 2.113.527 1.604 1.758 2.368 3.39 2.368 1.356 0 2.335-.433 3.239-1.375.124-.127.3-.254.501-.254.352 0 .603.254.603.585 0 .178-.05.331-.15.458-.854 1.096-2.285 1.91-4.268 1.91-2.311 0-3.893-1.095-4.57-3.182zm-13.886-4.024c.101 0 .15-.051.15-.153 0-.713-.075-1.248-.226-1.731-.477-1.502-1.657-2.292-3.213-2.292-1.558 0-2.713.79-3.189 2.292-.151.483-.226 1.018-.226 1.731 0 .102.05.153.15.153zm-7.708 4.024c-.251-.765-.377-1.605-.377-3.158 0-1.528.126-2.368.377-3.158.652-2.037 2.284-3.157 4.419-3.157 2.158 0 3.79 1.12 4.443 3.157.252.764.377 1.681.377 2.903 0 .382-.251.637-.627.637h-7.458c-.1 0-.15.05-.15.153 0 .993.05 1.502.25 2.113.527 1.604 1.759 2.368 3.39 2.368 1.356 0 2.335-.433 3.24-1.375.124-.127.3-.254.501-.254.352 0 .603.254.603.585 0 .178-.05.331-.151.458-.853 1.096-2.285 1.91-4.268 1.91-2.31 0-3.892-1.095-4.569-3.182zm14.292 2.24-5.348-15.711c-.025-.102-.051-.229-.051-.331 0-.407.302-.687.704-.687.301 0 .552.204.678.56l4.895 14.438h.051l4.821-14.438c.125-.356.377-.56.678-.56.401 0 .702.28.702.687 0 .102-.024.255-.049.331l-5.348 15.711c-.176.535-.403.79-.88.79-.451 0-.677-.255-.853-.79zm-16.966.79c-1.833 0-2.486-.866-2.486-2.852v-13.903c0-.484.276-.739.678-.739.401 0 .677.255.677.739v13.852c0 1.197.327 1.578 1.382 1.578.451 0 .702.28.702.663 0 .381-.251.662-.702.662zm-6.403-3.362c.251-.789.326-1.604.326-2.826 0-1.197-.075-2.012-.326-2.801-.452-1.375-1.532-2.19-3.064-2.19-1.506 0-2.611.688-3.088 2.114-.2.661-.301 1.68-.301 2.877 0 1.222.101 2.241.301 2.903.477 1.426 1.582 2.113 3.088 2.113 1.532 0 2.612-.815 3.064-2.19zm-6.427 1.732h-.026v.891c0 .484-.276.739-.678.739-.401 0-.678-.255-.678-.739v-16.042c0-.483.277-.738.678-.738.402 0 .678.255.678.738v6.06h.026c.576-1.043 1.632-1.782 3.59-1.782 2.034 0 3.49 1.095 4.118 3.005.3.993.426 1.935.426 3.31 0 1.401-.126 2.343-.426 3.336-.628 1.909-2.084 3.004-4.118 3.004-1.958 0-3.014-.738-3.59-1.782zm-5.374.891v-.84h-.024c-.678 1.095-1.807 1.731-3.49 1.731-2.636 0-4.143-1.68-4.143-4.634v-7.13c0-.484.276-.738.678-.738s.677.254.677.738v6.799c0 2.419 1.005 3.641 3.089 3.641 1.808 0 3.213-1.298 3.213-3.386v-7.054c0-.484.277-.738.679-.738.401 0 .678.254.678.738v10.873c0 .484-.277.739-.678.739-.402 0-.679-.255-.679-.739zm-11.287-2.699c.227-.688.327-1.426.327-2.75 0-1.299-.1-2.037-.327-2.725-.476-1.451-1.631-2.266-3.188-2.266-1.532 0-2.686.815-3.164 2.266-.225.688-.325 1.426-.325 2.725 0 1.324.1 2.062.325 2.75.478 1.451 1.632 2.266 3.164 2.266 1.557 0 2.712-.815 3.188-2.266zm-7.657.433c-.251-.815-.401-1.706-.401-3.183 0-1.452.15-2.343.401-3.158.653-2.011 2.285-3.157 4.469-3.157 2.21 0 3.842 1.146 4.495 3.157.251.815.401 1.706.401 3.158 0 1.477-.15 2.368-.401 3.183-.653 2.011-2.285 3.157-4.495 3.157-2.184 0-3.816-1.146-4.469-3.157zm-12.245 1.63h3.415c2.561 0 3.917-.866 4.619-3.031.326-1.043.452-2.037.452-4.252s-.126-3.208-.452-4.252c-.702-2.164-2.058-3.03-4.619-3.03h-3.415c-.1 0-.151.051-.151.152v14.26c0 .102.051.153.151.153zm-1.582-15.253c0-.433.277-.687.703-.687h4.494c3.138 0 4.997 1.4 5.801 3.921.377 1.197.502 2.241.502 4.736 0 2.496-.125 3.54-.502 4.736-.804 2.521-2.663 3.922-5.801 3.922h-4.494c-.426 0-.703-.255-.703-.688z" fill="#14113b"/><path d="m2 34c-1.105 0-2-.934-2-2.086v-23.828c0-1.152.895-2.086 2-2.086s2 .934 2 2.086v23.828c0 1.152-.895 2.086-2 2.086" fill="#00b2a9"/><path d="m10.851 34h-2.743c-1.164 0-2.108-.933-2.108-2.085s.944-2.086 2.108-2.086h2.743c5.477 0 9.934-4.409 9.934-9.829s-4.457-9.829-9.934-9.829h-2.743c-1.164 0-2.108-.934-2.108-2.086 0-1.151.944-2.085 2.108-2.085h2.743c7.802 0 14.149 6.281 14.149 14 0 7.72-6.347 14-14.149 14" fill="#34b233"/><path d="m39.953 34c-.771 0-1.509-.446-1.857-1.205l-10.904-23.827c-.478-1.044-.034-2.285.991-2.772s2.243-.035 2.721 1.009l10.904 23.827c.478 1.044.034 2.285-.991 2.772-.28.133-.574.196-.864.196" fill="#c70099"/><path d="m43.825 26c-.281 0-.567-.063-.839-.196-.995-.488-1.426-1.731-.961-2.777l7.022-15.82c.465-1.046 1.648-1.499 2.643-1.01.995.487 1.425 1.73.961 2.776l-7.023 15.82c-.337.76-1.054 1.207-1.803 1.207" fill="#6e2ca9"/><path d="m63 40h.5v-40h-.5z" fill="#14113b"/></g></svg>